# xmcd
#
# Track frame offsets:
#	150
#	15059
#	28922
#	49391
#	66294
#	83403
#	100502
#	116405
#	133542
#	143404
#
# Disc length: 2155 seconds
#
# Revision: 0
# Processed by: cddbd v1.5.2PL0 Copyright (c) Steve Scherf et al.
# Submitted via: EZCDAudioConverter 7.1.2.1
#
DISCID=7108690a
DTITLE=James Day - James Day Songs Song. Soul and Spirit
DYEAR=2017
DGENRE=
TTITLE0=Battlegrounds
TTITLE1=Love Is My Bible
TTITLE2=Stand On My Shoulders
TTITLE3=Speak Love
TTITLE4=Who Can Tell The Heart
TTITLE5=It's All Divine
TTITLE6=Forgiveness
TTITLE7=No Son Of Mine
TTITLE8=Dreamland (Bonus Track)
TTITLE9=We Dance (Bonus Track)
EXTD=
EXTT0=
EXTT1=
EXTT2=
EXTT3=
EXTT4=
EXTT5=
EXTT6=
EXTT7=
EXTT8=
EXTT9=
PLAYORDER=
